<svg xmlns="http://www.w3.org/2000/svg" viewBox="0 0 256 256">
  <defs>
    <linearGradient id="g" x1="0" y1="0" x2="1" y2="1">
      <stop offset="0%" stop-color="#4F46E5"/>
      <stop offset="100%" stop-color="#06B6D4"/>
    </linearGradient>
    <filter id="shadow" x="-20%" y="-20%" width="140%" height="140%">
      <feDropShadow dx="0" dy="6" stdDeviation="8" flood-color="#000" flood-opacity="0.25"/>
    </filter>
  </defs>
  <rect x="16" y="16" width="224" height="224" rx="32" fill="url(#g)" filter="url(#shadow)"/>
  <g fill="#ffffff" stroke="none">
    <!-- Checkmark -->
    <path d="M96 148l-22 -22c-4 -4 -10 -4 -14 0c-4 4 -4 10 0 14l29 29c4 4 10 4 14 0l69 -69c4 -4 4 -10 0 -14c-4 -4 -10 -4 -14 0l-62 62z"/>
    <!-- Calendar dots -->
    <circle cx="72" cy="72" r="10" opacity="0.9"/>
    <circle cx="108" cy="72" r="10" opacity="0.9"/>
    <circle cx="144" cy="72" r="10" opacity="0.9"/>
    <circle cx="180" cy="72" r="10" opacity="0.9"/>
  </g>
</svg>
